Coordinates
version=1
nRows=49
nColumns=12
inDegrees=yes

Units are S.I. units (second, meters, Newtons, ...)
Angles are in degrees

endheader
time	SC_y	SC_z	SC_x	AC_y	AC_z	AC_x	GH_y	GH_z	GH_yy	EL_x	PS_y
       0.0              -27.67          17.91          55.07          36.14        -0.4742          2.032          173.7          42.19         -94.88          11.56          146.6
   0.02161              -27.67          17.91          55.06          36.14         -0.475          2.033          173.6          42.19         -94.87          11.56          146.6
   0.04323              -27.67          17.91          55.05          36.14        -0.4758          2.034          173.6          42.19         -94.86          11.57          146.6
   0.06484              -27.67          17.91          55.04          36.14        -0.4767          2.035          173.6          42.19         -94.85          11.57          146.6
   0.08645              -27.67           17.9          55.03          36.14        -0.4776          2.036          173.6          42.19         -94.84          11.58          146.6
    0.1081              -27.68           17.9          55.02          36.14        -0.4786          2.037          173.6           42.2         -94.83          11.58          146.6
    0.1297              -27.68           17.9          55.01          36.14        -0.4796          2.039          173.5           42.2         -94.81          11.59          146.6
    0.1513              -27.68           17.9           55.0          36.14        -0.4807           2.04          173.5           42.2          -94.8          11.59          146.6
    0.1729              -27.68           17.9          54.99          36.14        -0.4819          2.042          173.5           42.2         -94.78           11.6          146.6
    0.1945              -27.69           17.9          54.97          36.14        -0.4832          2.043          173.5          42.21         -94.77          11.61          146.6
    0.2161              -27.69          17.89          54.96          36.13        -0.4846          2.045          173.4          42.21         -94.75          11.61          146.6
    0.2377              -27.69          17.89          54.94          36.13         -0.486          2.047          173.4          42.21         -94.73          11.62          146.6
    0.2594               -27.7          17.89          54.93          36.13        -0.4876          2.049          173.4          42.21         -94.71          11.63          146.7
     0.281               -27.7          17.89          54.91          36.13        -0.4893          2.051          173.3          42.22         -94.68          11.64          146.7
    0.3026               -27.7          17.88          54.89          36.13        -0.4912          2.054          173.3          42.22         -94.66          11.65          146.7
    0.3242              -27.71          17.88          54.87          36.13        -0.4932          2.057          173.3          42.22         -94.63          11.66          146.7
    0.3458              -27.71          17.88          54.85          36.13        -0.4954          2.059          173.2          42.23          -94.6          11.67          146.7
    0.3674              -27.72          17.87          54.82          36.12        -0.4978          2.063          173.2          42.23         -94.57          11.68          146.7
     0.389              -27.72          17.87          54.79          36.12        -0.5004          2.066          173.1          42.24         -94.54           11.7          146.7
    0.4107              -27.73          17.87          54.76          36.12        -0.5033           2.07          173.0          42.24          -94.5          11.71          146.7
    0.4323              -27.74          17.86          54.73          36.12        -0.5064          2.074          173.0          42.25         -94.46          11.73          146.7
    0.4539              -27.74          17.86          54.69          36.11        -0.5099          2.078          172.9          42.26         -94.41          11.75          146.7
    0.4755              -27.75          17.85          54.65          36.11        -0.5137          2.083          172.8          42.26         -94.36          11.77          146.7
    0.4971              -27.76          17.84          54.61          36.11        -0.5179          2.089          172.7          42.27         -94.31          11.79          146.7
    0.5187              -27.77          17.84          54.56           36.1        -0.5226          2.095          172.6          42.28         -94.25          11.81          146.7
    0.5403              -27.78          17.83          54.51           36.1        -0.5278          2.102          172.5          42.29         -94.18          11.84          146.8
    0.5619               -27.8          17.82          54.44          36.09        -0.5337           2.11          172.4           42.3          -94.1          11.87          146.8
    0.5836              -27.81          17.81          54.37          36.09        -0.5403          2.118          172.3          42.32         -94.01          11.91          146.8
    0.6052              -27.83           17.8           54.3          36.08        -0.5478          2.128          172.1          42.33         -93.91          11.95          146.8
    0.6268              -27.84          17.79          54.21          36.08        -0.5563          2.139          171.9          42.35          -93.8          11.99          146.8
    0.6484              -27.87          17.77           54.1          36.07        -0.5659          2.152          171.7          42.37         -93.67          12.04          146.9
      0.67              -27.89          17.76          53.99          36.06         -0.577          2.166          171.5          42.39         -93.53           12.1          146.9
    0.6916              -27.92          17.74          53.85          36.05        -0.5898          2.183          171.2          42.41         -93.36          12.17          146.9
    0.7132              -27.95          17.72           53.7          36.04        -0.6047          2.202          170.9          42.44         -93.16          12.25          146.9
    0.7349              -27.99          17.69          53.51          36.02        -0.6222          2.225          170.5          42.48         -92.93          12.34          147.0
    0.7565              -28.03          17.66           53.3          36.01        -0.6427          2.252          170.1          42.52         -92.66          12.44          147.0
    0.7781              -28.08          17.62          53.04          35.99        -0.6671          2.284          169.6          42.56         -92.34          12.57          147.1
    0.7997              -28.15          17.58          52.73          35.96        -0.6964          2.322          169.0          42.62         -91.95          12.73          147.2
    0.8213              -28.22          17.53          52.36          35.94        -0.7318          2.369          168.2          42.69         -91.48          12.91          147.3
    0.8429              -28.32          17.46          51.91           35.9         -0.775          2.425          167.3          42.77         -90.91          13.14          147.4
    0.8645              -28.43          17.38          51.35          35.86        -0.8284          2.495          166.2          42.88         -90.21          13.42          147.5
    0.8861              -28.58          17.28          50.65           35.8        -0.8949          2.582          164.7          43.01         -89.33          13.77          147.7
    0.9078              -28.76          17.16          49.77          35.74        -0.9787          2.692          163.0          43.17         -88.22          14.21          147.9
    0.9294              -28.99           17.0          48.65          35.65         -1.085          2.831          160.7          43.38         -86.81          14.76          148.2
     0.951              -29.28           16.8          47.21          35.54         -1.222           3.01          157.8          43.64         -85.01          15.48          148.5
    0.9726              -29.66          16.54          45.37           35.4         -1.397          3.239          154.1          43.98          -82.7           16.4          149.0
    0.9942              -30.15          16.21          43.02          35.22          -1.62          3.532          149.4          44.42         -79.75          17.57          149.5
     1.016              -30.75          15.79          40.07           35.0         -1.901            3.9          143.4          44.96         -76.03          19.04          150.2
     1.037              -31.49          15.28          36.46          34.72         -2.244          4.348          136.1          45.63         -71.51          20.84          151.1
